<?xml version="1.0" encoding="utf-8"?>
<!-- Generator: Adobe Illustrator 27.5.0, SVG Export Plug-In . SVG Version: 6.00 Build 0)  -->
<svg version="1.1" id="Layer_1" xmlns="http://www.w3.org/2000/svg" xmlns:xlink="http://www.w3.org/1999/xlink" x="0px" y="0px"
	 viewBox="0 0 860 296" style="enable-background:new 0 0 860 296;" xml:space="preserve">
<style type="text/css">
	.st0{fill:#E42527;}
</style>
<g>
	<g>
		<path d="M317.5,140.8h41.6c23,0,43.2,8.5,43.2,34.5c0,16.4-9.8,27-25.4,30.8l32.3,49.5h-24l-29.9-46.3h-15.5v46.3h-22.3
			L317.5,140.8L317.5,140.8z M358.5,194c12.8,0,22.2-4.9,22.2-18.6c0-14.2-10-17.6-22.2-17.6h-18.7V194H358.5z"/>
		<path d="M492.3,237.4c-7,14.8-22.1,19.9-37.5,19.9c-26.5,0-43.2-17.7-43.2-43.9c0-24.6,17-43.6,42.3-43.6
			c27.2,0,40.4,15.9,40.4,48.3H432c0,14.2,8.2,24.6,23.5,24.6c9.1,0,16.6-3.7,21-12.2L492.3,237.4z M474.2,204.9
			c-0.6-12.7-8.3-20.5-20.2-20.5c-12.6,0-20,8.9-21.7,20.5H474.2z"/>
		<path d="M586.2,231.9c-5.6,17.6-21.3,25.3-38.8,25.3c-26.7,0-42.6-17.9-42.6-43.9c0-25,17.8-43.6,43.1-43.6
			c17,0,31.7,7.1,37.9,23.6l-16.2,7.1c-3.4-9.4-11.5-14.8-21.7-14.8c-16.4,0-22.4,14.2-22.4,28.6c0,14.8,6.5,27.6,22.8,27.6
			c11.5,0,19.3-6.4,22.8-16.9L586.2,231.9z"/>
		<path d="M602.1,171.6h20.1v15.8c5.7-11.5,14.8-17,27.6-17V189c-16.2,0-27.6,5.3-27.6,23.3v43.4h-20.1V171.6z"/>
		<path d="M722.1,242.5c-5.3,10.2-16.1,14.8-27.7,14.8c-19.3,0-29.5-12.7-29.5-31.8v-53.8H685V223c0,11.5,5.3,18.5,17,18.5
			c12.6,0,20.2-8.1,20.2-20.1v-49.8h20v84h-20v-13.1L722.1,242.5L722.1,242.5z"/>
		<path d="M774.9,136.1c6.5,0,11.7,4.8,11.7,11.5c0,6.6-5,11.4-11.6,11.4c-6.5,0-12-4.9-12-11.5
			C762.9,140.8,768.3,136.1,774.9,136.1z M764.7,171.8h20.1v83.9h-20.1V171.8z"/>
		<path d="M850.1,255.1c-4.3,1.3-8.8,2-13.8,2c-16,0-25.5-8.3-25.5-25v-45.7h-11.3v-14.8h11.3v-17.3l20.1-8.7v26.1h18.5v14.8h-18.5
			v43.9c0,6.6,2.8,10.7,10.2,10.7c2.8,0,6-0.6,9-1.6V255.1z"/>
	</g>
	<g>
		<path d="M317.7,104.4l37-53.4h-33.2V40.5H372v5.2l-36,53.4h35v10.5h-53.3V104.4z"/>
		<path d="M403.7,58c15.4,0,27.2,10.8,27.2,26.3c0,15.9-12.4,26.4-27.7,26.4c-15.4,0-27.8-10.7-27.8-26.1
			C375.4,68.6,388.5,58,403.7,58z M417.9,84.3c0-9.3-4.7-17.1-14.7-17.1c-10.2,0-14.3,8.1-14.3,17.4c0,9,4.8,16.6,14.6,16.6
			C413.6,101.3,417.9,93.2,417.9,84.3z"/>
		<path d="M439.7,36.1h12.1v31c3.3-6.3,9.9-9.1,16.9-9.1c12.1,0,18.2,8.5,18.2,20v31.7h-12.2V79.2c0-7.3-3.8-11.3-10.8-11.3
			c-7.8,0-12.1,4.8-12.1,12v29.7h-12.1V36.1z"/>
		<path d="M523.1,58c15.4,0,27.2,10.8,27.2,26.3c0,15.9-12.4,26.4-27.7,26.4c-15.4,0-27.8-10.7-27.8-26.1
			C494.8,68.6,507.9,58,523.1,58z M537.3,84.3c0-9.3-4.7-17.1-14.7-17.1c-10.2,0-14.3,8.1-14.3,17.4c0,9,4.8,16.6,14.6,16.6
			C533,101.3,537.3,93.2,537.3,84.3z"/>
	</g>
</g>
<g>
	<g>
		<path class="st0" d="M131.4,293c-2.2,0-4.4-0.8-6-2.5l-35.1-35.1c-1.6-1.6-2.5-3.8-2.5-6s0.9-4.4,2.5-6l35.1-35.1
			c3.3-3.3,8.7-3.3,12,0l35.1,35.1c1.6,1.6,2.5,3.8,2.5,6s-0.9,4.4-2.5,6l-35.1,35.1C135.8,292.2,133.6,293,131.4,293z M108.3,249.4
			l23.1,23.1l23.1-23.1l-23.1-23.1L108.3,249.4z"/>
	</g>
	<g>
		<path class="st0" d="M200.5,224.1c-2.2,0-4.4-0.8-6-2.5l-35-35c-1.6-1.6-2.5-3.8-2.5-6s0.9-4.4,2.5-6l10.9-10.8
			c10.4-10.4,16.1-24.2,16.1-38.9s-5.7-28.5-16.1-38.9l-0.1-0.1c-21.4-21.4-56.3-21.4-77.7,0l0,0c-8.5,8.5-13.9,19.3-15.6,31.2
			c-1.6,11.5,0.5,23.4,5.9,33.6c2.2,4.1,0.7,9.3-3.5,11.5c-4.1,2.2-9.3,0.7-11.5-3.5c-7.1-13.3-9.9-29-7.8-44
			c2.2-15.6,9.2-29.7,20.4-40.8l0,0c13.6-13.6,31.7-21.1,50.9-21.1s37.3,7.5,50.9,21.1l0.1,0.1c13.6,13.6,21.1,31.7,21.1,50.9
			s-7.5,37.3-21.1,50.9l-4.8,4.8l23,23l4.9-4.9c19.8-19.8,30.6-46,30.6-74s-10.9-54.2-30.7-74s-46-30.6-74-30.6S77.2,31,57.4,50.7
			s-30.6,46-30.6,74s10.9,54.2,30.6,74l4.9,4.9l29-29c3.3-3.3,8.7-3.3,12,0s3.3,8.7,0,12l-35,35c-3.3,3.3-8.7,3.3-12,0l-11-10.9
			c-11.6-11.6-20.6-25.1-26.7-40.2c-5.9-14.6-8.9-30-8.9-45.8s3-31.2,8.9-45.8c6.1-15.1,15.1-28.6,26.7-40.2S70.6,18,85.7,11.9
			C100.2,6,115.6,3,131.4,3s31.2,3,45.8,8.9c15.1,6.1,28.6,15.1,40.2,26.7C229,50.2,238,63.8,244.1,78.9c5.9,14.6,8.9,30,8.9,45.8
			s-3,31.2-8.9,45.8c-6.1,15.1-15.1,28.6-26.7,40.2l-11,11C204.8,223.2,202.6,224.1,200.5,224.1z"/>
	</g>
</g>
</svg>
